<?xml version="1.0" standalone="no"?>
<!DOCTYPE svg PUBLIC "-//W3C//DTD SVG 20010904//EN"
 "http://www.w3.org/TR/2001/REC-SVG-20010904/DTD/svg10.dtd">
<svg version="1.0" xmlns="http://www.w3.org/2000/svg"
 width="201.000000pt" height="204.000000pt" viewBox="0 0 201.000000 204.000000"
 preserveAspectRatio="xMidYMid meet">

<g transform="translate(0.000000,204.000000) scale(0.100000,-0.100000)"
fill="#000000" stroke="none">
<path d="M0 1020 l0 -1020 1005 0 1005 0 0 1020 0 1020 -1005 0 -1005 0 0
-1020z m1205 821 c148 -42 257 -106 368 -217 265 -264 323 -696 136 -1019
-101 -176 -278 -321 -464 -382 -117 -38 -322 -44 -449 -14 -394 94 -667 485
-625 896 13 126 32 196 84 300 120 243 349 412 615 455 83 14 255 4 335 -19z"/>
<path d="M1010 1832 c0 -10 6 -26 14 -37 18 -27 29 -75 17 -75 -5 0 -13 5 -17
11 -6 11 -33 9 -66 -5 -14 -7 -15 -4 -4 26 6 18 17 43 24 55 17 31 16 33 -28
33 -124 0 -325 -77 -439 -168 -205 -163 -314 -389 -314 -652 0 -229 76 -412
240 -580 l73 -74 17 24 c24 35 41 47 102 75 30 14 51 29 47 33 -4 4 -35 7 -69
7 -53 0 -62 3 -65 19 -2 11 -14 27 -26 37 -17 15 -19 21 -9 37 9 15 9 22 0 31
-9 9 -8 17 2 33 11 18 11 23 -3 33 -18 14 -21 41 -5 50 7 5 2 16 -12 31 -21
23 -21 25 -5 43 17 18 17 19 -1 24 -10 3 6 5 35 6 48 1 52 3 52 25 0 18 -7 26
-22 29 l-23 4 23 2 c12 0 22 5 22 10 0 5 -10 12 -22 14 -23 4 -23 4 1 6 22 1
23 3 17 64 -8 89 -16 120 -29 129 -9 6 -9 8 0 8 18 0 3 40 -16 41 -10 0 -11 2
-3 6 31 12 8 25 -42 21 -30 -1 -52 0 -50 4 7 11 135 21 145 11 21 -21 41 -123
47 -243 l7 -125 32 -20 c18 -11 32 -27 33 -36 0 -9 8 -23 17 -30 35 -29 73
-103 73 -141 0 -36 3 -40 43 -57 127 -53 194 -58 297 -22 73 25 99 51 110 110
5 28 14 60 20 71 5 10 10 30 10 45 0 18 7 28 24 35 14 5 26 19 28 32 2 13 10
23 18 23 12 0 15 -12 14 -53 -1 -29 -7 -59 -13 -66 -25 -30 7 -23 52 12 43 33
47 40 47 80 0 50 -20 64 -52 36 l-22 -19 21 30 c18 27 20 41 15 144 -3 74 0
139 9 185 l13 71 7 -65 c4 -36 7 -106 8 -156 0 -50 3 -93 6 -96 3 -3 42 33 87
81 45 47 95 100 111 116 l30 30 -18 -30 c-31 -53 -122 -169 -164 -210 -39 -37
-41 -42 -41 -97 0 -56 1 -58 26 -58 22 0 25 -4 23 -28 -2 -15 0 -33 4 -39 5
-7 9 -42 11 -78 3 -65 2 -67 -33 -96 -20 -16 -54 -34 -76 -40 -22 -5 -49 -14
-60 -19 -16 -7 -12 -9 20 -10 49 -1 124 -33 147 -63 l18 -22 42 49 c167 191
240 395 224 622 -14 204 -82 362 -223 513 -139 150 -289 224 -515 255 -31 4
-38 2 -38 -12z m-372 -167 l22 -35 -29 0 c-23 0 -30 5 -35 25 -7 26 -1 45 12
45 4 0 17 -16 30 -35z m394 -16 c40 -9 62 -21 90 -50 42 -44 45 -46 50 -21 7
30 48 -48 48 -91 0 -21 6 -48 14 -60 21 -34 29 -83 21 -143 -7 -57 -25 -75
-25 -25 0 17 -4 33 -10 36 -5 3 -7 25 -4 48 5 33 2 48 -14 67 l-20 25 -24 -22
c-13 -12 -54 -36 -92 -53 l-68 -31 -65 30 c-35 17 -77 39 -92 50 -42 30 -64
10 -64 -55 0 -27 -6 -58 -13 -69 -13 -17 -14 -14 -14 32 0 28 5 64 10 79 13
34 7 40 -25 26 -35 -16 -33 3 5 36 35 31 39 47 10 39 -11 -3 -20 -2 -20 2 0
12 55 61 68 61 18 0 14 18 -5 29 -16 8 -13 12 19 25 45 19 71 19 121 2 44 -16
48 -6 10 23 l-28 20 32 1 c18 0 56 -5 85 -11z m-291 -441 c19 -10 25 -23 27
-53 8 -122 21 -173 43 -159 5 3 9 -6 9 -20 0 -14 2 -26 4 -26 3 0 28 14 55 32
48 29 53 30 90 18 29 -9 43 -9 59 -1 29 16 64 5 98 -30 15 -16 31 -29 35 -29
30 0 84 219 60 243 -8 8 -11 4 -11 -15 0 -15 -11 -39 -24 -54 -28 -34 -84 -38
-116 -9 -25 22 -26 47 -2 44 40 -4 61 3 115 35 31 19 57 30 57 24 0 -6 6 -6
15 2 8 7 22 9 31 6 13 -5 15 -14 10 -49 -4 -23 -11 -62 -15 -87 -9 -56 -17
-70 -42 -70 -16 0 -19 -7 -19 -45 0 -47 13 -57 39 -32 11 10 12 8 3 -9 -7 -12
-18 -24 -26 -27 -8 -3 -18 -22 -22 -41 -3 -20 -10 -34 -14 -31 -5 3 -11 -7
-15 -23 -12 -56 -41 -88 -114 -125 l-72 -35 -63 28 c-48 22 -66 36 -76 60 -7
18 -19 29 -28 28 -11 -2 -18 8 -23 30 -4 19 -12 39 -18 45 -6 6 -11 19 -11 28
0 9 -11 24 -25 33 -14 9 -25 21 -25 27 0 8 5 7 15 -1 15 -13 22 -5 26 30 4 42
-2 59 -23 62 -24 3 -28 17 -44 156 -7 56 -2 60 37 40z m-254 -24 c-3 -3 -12
-4 -19 -1 -8 3 -5 6 6 6 11 1 17 -2 13 -5z"/>
<path d="M969 933 c-8 -9 -33 -25 -57 -35 -31 -14 -42 -24 -38 -35 3 -8 6 -17
6 -19 0 -2 9 -4 21 -4 31 0 61 20 55 36 -4 11 6 14 46 14 43 0 49 -2 38 -15
-10 -12 -7 -17 15 -27 19 -8 31 -9 43 -1 28 17 26 40 -5 48 -15 3 -42 17 -60
31 -37 28 -46 29 -64 7z"/>
<path d="M618 779 c-4 -25 0 -33 23 -45 15 -8 30 -14 34 -14 13 0 3 48 -12 62
-34 29 -41 29 -45 -3z"/>
<path d="M570 530 c0 -5 5 -10 10 -10 6 0 10 5 10 10 0 6 -4 10 -10 10 -5 0
-10 -4 -10 -10z"/>
<path d="M950 334 c-54 -24 -180 -54 -228 -54 -59 0 -46 -15 35 -40 111 -34
242 -44 353 -27 98 15 214 53 205 66 -2 5 -36 11 -74 15 -39 3 -106 17 -148
31 -91 29 -97 29 -143 9z"/>
</g>
</svg>
